<mxfile host="app.diagrams.net" modified="2021-05-06T08:15:46.757Z" agent="5.0 (Windows NT 10.0; Win64; x64) AppleWebKit/537.36 (KHTML, like Gecko) Chrome/90.0.4430.93 Safari/537.36" etag="RyHRG564jj8XGnaBLeDl" version="14.6.10" type="github">
  <diagram id="5tIJBwswDzbv680rha9n" name="Page-1">
    <mxGraphModel dx="460" dy="792" grid="1" gridSize="10" guides="1" tooltips="1" connect="1" arrows="1" fold="1" page="1" pageScale="1" pageWidth="850" pageHeight="1100" math="0" shadow="0">
      <root>
        <mxCell id="0" />
        <mxCell id="1" parent="0" />
        <mxCell id="3kLbnOj89_bLyqICRofI-9" value="" style="edgeStyle=orthogonalEdgeStyle;rounded=0;orthogonalLoop=1;jettySize=auto;html=1;" edge="1" parent="1" source="3kLbnOj89_bLyqICRofI-6" target="3kLbnOj89_bLyqICRofI-8">
          <mxGeometry relative="1" as="geometry" />
        </mxCell>
        <mxCell id="3kLbnOj89_bLyqICRofI-6" value="DEFENDER中存在的索引数组" style="rounded=0;whiteSpace=wrap;html=1;" vertex="1" parent="1">
          <mxGeometry x="100" y="90" width="200" height="130" as="geometry" />
        </mxCell>
        <mxCell id="3kLbnOj89_bLyqICRofI-13" value="" style="edgeStyle=orthogonalEdgeStyle;rounded=0;orthogonalLoop=1;jettySize=auto;html=1;" edge="1" parent="1" source="3kLbnOj89_bLyqICRofI-8" target="3kLbnOj89_bLyqICRofI-12">
          <mxGeometry relative="1" as="geometry" />
        </mxCell>
        <mxCell id="3kLbnOj89_bLyqICRofI-8" value="`EmuVaddrNode`数组" style="rounded=0;whiteSpace=wrap;html=1;" vertex="1" parent="1">
          <mxGeometry x="100" y="220" width="200" height="130" as="geometry" />
        </mxCell>
        <mxCell id="3kLbnOj89_bLyqICRofI-12" value="PAGE" style="rounded=0;whiteSpace=wrap;html=1;" vertex="1" parent="1">
          <mxGeometry x="100" y="350" width="200" height="130" as="geometry" />
        </mxCell>
        <mxCell id="3kLbnOj89_bLyqICRofI-18" value="" style="endArrow=classic;html=1;rounded=0;edgeStyle=orthogonalEdgeStyle;" edge="1" parent="1">
          <mxGeometry relative="1" as="geometry">
            <mxPoint x="390" y="120" as="sourcePoint" />
            <mxPoint x="390" y="480" as="targetPoint" />
          </mxGeometry>
        </mxCell>
        <mxCell id="3kLbnOj89_bLyqICRofI-19" value="HIGH ADDRESS" style="edgeLabel;resizable=0;html=1;align=center;verticalAlign=middle;" connectable="0" vertex="1" parent="3kLbnOj89_bLyqICRofI-18">
          <mxGeometry relative="1" as="geometry" />
        </mxCell>
      </root>
    </mxGraphModel>
  </diagram>
</mxfile>
